# xmcd
#
# Track frame offsets:
# 150
# 19720
# 40037
# 58294
# 74595
# 87193
# 101486
# 120089
# 136059
# 155517
# 175825
# 194255
# 210640
# 223274
# 237345
# 256106
#
# Disc length: 3628 seconds
#
#
# Revision: 0
# Processed by: cddbd v1.5.1PL2 Copyright (c) Steve Scherf et al.
# Submitted via: FreeRIP 2.944 
#
DISCID=db0e2a10
DTITLE=Rayssa e Ravel - As melhores
DYEAR=1999
DGENRE=Pentecostal
TTITLE0=Nascer de Novo
TTITLE1=A Esperança Que restou
TTITLE2=Arrebatamento
TTITLE3=Acabou Minha Procura
TTITLE4=Alerta
TTITLE5=O Caminho Certo
TTITLE6=Hoje
TTITLE7=Lindo
TTITLE8=Nascer de Novo PB
TTITLE9=A Esperança Que restou PB
TTITLE10=Arrebatamento PB
TTITLE11=Acabou Minha Procura PB
TTITLE12=Alerta PB
TTITLE13=O Caminho Certo PB
TTITLE14=Hoje PB
TTITLE15=Lindo PB
EXTD=by SIDINEI
EXTT0=
EXTT1=
EXTT2=
EXTT3=
EXTT4=
EXTT5=
EXTT6=
EXTT7=
EXTT8=
EXTT9=
EXTT10=
EXTT11=
EXTT12=
EXTT13=
EXTT14=
EXTT15=
PLAYORDER=
